<svg xmlns="http://www.w3.org/2000/svg" viewBox="0 0 36 37">
  <path d="M31.09 0H4.223C1.892 0 0 1.892 0 4.224v27.992c0 2.332 1.892 4.225 4.224 4.225H31.09c2.334 0 4.226-1.892 4.226-4.224V4.224C35.316 1.892 33.424 0 31.09 0zm1.935 32.61c0 .826-.672 1.497-1.496 1.497H3.786c-.824 0-1.494-.67-1.494-1.498V3.83c0-.827.67-1.498 1.494-1.498H31.53c.823 0 1.495.67 1.495 1.498V32.61zm-8.99-10.172l-.432.433L13.01 12.275l.43-.43c.594-.594.416-1.258-.394-1.474l-2.95-.79c-.812-.22-1.298.267-1.08 1.078l.79 2.95c.217.81.88.988 1.474.394l.433-.432 10.594 10.597-.43.43c-.594.594-.416 1.257.395 1.475.81.217 2.14.572 2.95.79.81.217 1.296-.27 1.08-1.08-.22-.81-.575-2.138-.79-2.95-.22-.81-.882-.988-1.476-.394z"/>
</svg>
