<svg xmlns="http://www.w3.org/2000/svg" viewBox="0 0 297 297">
  <circle cx="148.5" cy="148.5" r="148.5" fill="#345F41"/>
  <path fill="#2D5036" d="M241.38 101.424L86.915 254.29l41.328 41.328c6.625.904 13.385 1.38 20.258 1.38 79.23 0 143.96-62.046 148.27-140.198l-55.38-55.376z"/>
  <path fill="#6AAC4B" d="M94.507 227.47c2.062-2.06 3.454-4.69 3.993-7.555 3.544-18.83 18.73-92.56 40.213-98.155 24.644-6.42 30.028-2.9 41.004-20.502 10.976-17.602 44.628-16.257 61.506 0 16.257 16.878 17.602 50.53 0 61.506s-14.082 16.36-20.502 41.004c-5.59 21.482-79.32 36.67-98.15 40.213-2.86.54-5.49 1.94-7.55 4l-7.05 7.05c-5.66 5.66-14.84 5.66-20.5 0s-5.66-14.84 0-20.5l7.048-7.05z"/>
  <path fill="#86C867" d="M70.816 218.46c.665-2.84.463-5.807-.59-8.526-6.912-17.87-32.866-88.532-17.56-104.61 17.56-18.443 23.99-18.29 24.04-39.034s29.357-37.337 52.27-32.418c22.71 5.775 41.59 33.664 32.417 52.27-9.174 18.604-3.345 21.324 4.19 45.65 6.566 21.206-48.087 72.973-62.22 85.91-2.152 1.968-3.652 4.536-4.318 7.375l-2.275 9.705c-1.827 7.795-9.628 12.633-17.423 10.806-7.795-1.827-12.633-9.628-10.806-17.423l2.28-9.705z"/>
  <path fill="#5D993D" d="M241.222 101.258c-16.878-16.257-50.53-17.602-61.506 0-9.313 14.936-14.606 14.666-31.05 18.163v118.95c28.742-6.942 68.028-19.14 72.053-34.592 6.42-24.644 2.89-30.03 20.5-41.004 17.6-10.975 16.26-44.627 0-61.505z"/>
  <path fill="#78AF5B" d="M165.58 131.792c-7.532-24.326-13.362-27.047-4.188-45.652 6.26-12.7-.55-29.718-12.725-41.083v124.905c11.474-14.69 19.7-29.178 16.914-38.17z"/>
  <path fill="#6AAC4B" d="M81.503 239.27c-.304 0-.613-.036-.922-.11-2.15-.506-3.48-2.66-2.97-4.81l37.55-159.054c.51-2.15 2.66-3.485 4.81-2.974 2.15.507 3.48 2.66 2.98 4.812L85.4 236.187c-.435 1.84-2.077 3.082-3.89 3.082z"/>
  <path fill="#BFF796" d="M95.5 251.5c-1.02 0-2.042-.39-2.822-1.165-1.565-1.56-1.57-4.092-.013-5.657l114.97-115.49c1.558-1.565 4.092-1.568 5.657-.012 1.565 1.56 1.57 4.092.013 5.657l-114.97 115.49c-.78.784-1.81 1.177-2.835 1.177z"/>
  <path fill="#A6E079" d="M213.292 129.176c-1.565-1.557-4.1-1.554-5.657.013l-58.968 59.23v11.34l64.638-64.93c1.558-1.57 1.552-4.1-.013-5.66z"/>
</svg>
